<mxfile host="Electron" modified="2023-10-09T12:36:38.560Z" agent="Mozilla/5.0 (Windows NT 10.0; Win64; x64) AppleWebKit/537.36 (KHTML, like Gecko) draw.io/22.0.2 Chrome/114.0.5735.289 Electron/25.8.4 Safari/537.36" etag="7CYIMoLohMjd0hE8CXuj" version="22.0.2" type="device">
  <diagram name="Page-1" id="xEnp6B-kKFuYjzKq18dJ">
    <mxGraphModel dx="1036" dy="606" grid="1" gridSize="10" guides="1" tooltips="1" connect="1" arrows="1" fold="1" page="1" pageScale="1" pageWidth="827" pageHeight="1169" math="0" shadow="0">
      <root>
        <mxCell id="0" />
        <mxCell id="1" parent="0" />
        <mxCell id="grvuEKvJa0FzUhwnZ7c7-2" value="fact_sales" style="shape=table;startSize=30;container=1;collapsible=1;childLayout=tableLayout;fixedRows=1;rowLines=0;fontStyle=1;align=center;resizeLast=1;html=1;" vertex="1" parent="1">
          <mxGeometry x="370" y="240" width="326" height="270" as="geometry" />
        </mxCell>
        <mxCell id="grvuEKvJa0FzUhwnZ7c7-3" value="" style="shape=tableRow;horizontal=0;startSize=0;swimlaneHead=0;swimlaneBody=0;fillColor=none;collapsible=0;dropTarget=0;points=[[0,0.5],[1,0.5]];portConstraint=eastwest;top=0;left=0;right=0;bottom=1;" vertex="1" parent="grvuEKvJa0FzUhwnZ7c7-2">
          <mxGeometry y="30" width="326" height="30" as="geometry" />
        </mxCell>
        <mxCell id="grvuEKvJa0FzUhwnZ7c7-4" value="PK" style="shape=partialRectangle;connectable=0;fillColor=none;top=0;left=0;bottom=0;right=0;fontStyle=1;overflow=hidden;whiteSpace=wrap;html=1;" vertex="1" parent="grvuEKvJa0FzUhwnZ7c7-3">
          <mxGeometry width="30" height="30" as="geometry">
            <mxRectangle width="30" height="30" as="alternateBounds" />
          </mxGeometry>
        </mxCell>
        <mxCell id="grvuEKvJa0FzUhwnZ7c7-5" value="Rank(Ranking of overall sales )" style="shape=partialRectangle;connectable=0;fillColor=none;top=0;left=0;bottom=0;right=0;align=left;spacingLeft=6;fontStyle=5;overflow=hidden;whiteSpace=wrap;html=1;" vertex="1" parent="grvuEKvJa0FzUhwnZ7c7-3">
          <mxGeometry x="30" width="296" height="30" as="geometry">
            <mxRectangle width="296" height="30" as="alternateBounds" />
          </mxGeometry>
        </mxCell>
        <mxCell id="grvuEKvJa0FzUhwnZ7c7-6" value="" style="shape=tableRow;horizontal=0;startSize=0;swimlaneHead=0;swimlaneBody=0;fillColor=none;collapsible=0;dropTarget=0;points=[[0,0.5],[1,0.5]];portConstraint=eastwest;top=0;left=0;right=0;bottom=0;" vertex="1" parent="grvuEKvJa0FzUhwnZ7c7-2">
          <mxGeometry y="60" width="326" height="30" as="geometry" />
        </mxCell>
        <mxCell id="grvuEKvJa0FzUhwnZ7c7-7" value="" style="shape=partialRectangle;connectable=0;fillColor=none;top=0;left=0;bottom=0;right=0;editable=1;overflow=hidden;whiteSpace=wrap;html=1;" vertex="1" parent="grvuEKvJa0FzUhwnZ7c7-6">
          <mxGeometry width="30" height="30" as="geometry">
            <mxRectangle width="30" height="30" as="alternateBounds" />
          </mxGeometry>
        </mxCell>
        <mxCell id="grvuEKvJa0FzUhwnZ7c7-8" value="NA_Sales (Sales in North America in millions)" style="shape=partialRectangle;connectable=0;fillColor=none;top=0;left=0;bottom=0;right=0;align=left;spacingLeft=6;overflow=hidden;whiteSpace=wrap;html=1;" vertex="1" parent="grvuEKvJa0FzUhwnZ7c7-6">
          <mxGeometry x="30" width="296" height="30" as="geometry">
            <mxRectangle width="296" height="30" as="alternateBounds" />
          </mxGeometry>
        </mxCell>
        <mxCell id="grvuEKvJa0FzUhwnZ7c7-9" value="" style="shape=tableRow;horizontal=0;startSize=0;swimlaneHead=0;swimlaneBody=0;fillColor=none;collapsible=0;dropTarget=0;points=[[0,0.5],[1,0.5]];portConstraint=eastwest;top=0;left=0;right=0;bottom=0;" vertex="1" parent="grvuEKvJa0FzUhwnZ7c7-2">
          <mxGeometry y="90" width="326" height="30" as="geometry" />
        </mxCell>
        <mxCell id="grvuEKvJa0FzUhwnZ7c7-10" value="" style="shape=partialRectangle;connectable=0;fillColor=none;top=0;left=0;bottom=0;right=0;editable=1;overflow=hidden;whiteSpace=wrap;html=1;" vertex="1" parent="grvuEKvJa0FzUhwnZ7c7-9">
          <mxGeometry width="30" height="30" as="geometry">
            <mxRectangle width="30" height="30" as="alternateBounds" />
          </mxGeometry>
        </mxCell>
        <mxCell id="grvuEKvJa0FzUhwnZ7c7-11" value="EU_Sales (Sales in Europe in millions)" style="shape=partialRectangle;connectable=0;fillColor=none;top=0;left=0;bottom=0;right=0;align=left;spacingLeft=6;overflow=hidden;whiteSpace=wrap;html=1;" vertex="1" parent="grvuEKvJa0FzUhwnZ7c7-9">
          <mxGeometry x="30" width="296" height="30" as="geometry">
            <mxRectangle width="296" height="30" as="alternateBounds" />
          </mxGeometry>
        </mxCell>
        <mxCell id="grvuEKvJa0FzUhwnZ7c7-12" value="" style="shape=tableRow;horizontal=0;startSize=0;swimlaneHead=0;swimlaneBody=0;fillColor=none;collapsible=0;dropTarget=0;points=[[0,0.5],[1,0.5]];portConstraint=eastwest;top=0;left=0;right=0;bottom=0;" vertex="1" parent="grvuEKvJa0FzUhwnZ7c7-2">
          <mxGeometry y="120" width="326" height="50" as="geometry" />
        </mxCell>
        <mxCell id="grvuEKvJa0FzUhwnZ7c7-13" value="" style="shape=partialRectangle;connectable=0;fillColor=none;top=0;left=0;bottom=0;right=0;editable=1;overflow=hidden;whiteSpace=wrap;html=1;" vertex="1" parent="grvuEKvJa0FzUhwnZ7c7-12">
          <mxGeometry width="30" height="50" as="geometry">
            <mxRectangle width="30" height="50" as="alternateBounds" />
          </mxGeometry>
        </mxCell>
        <mxCell id="grvuEKvJa0FzUhwnZ7c7-14" value="JP_Sales (Sales in Japan in millions)" style="shape=partialRectangle;connectable=0;fillColor=none;top=0;left=0;bottom=0;right=0;align=left;spacingLeft=6;overflow=hidden;whiteSpace=wrap;html=1;" vertex="1" parent="grvuEKvJa0FzUhwnZ7c7-12">
          <mxGeometry x="30" width="296" height="50" as="geometry">
            <mxRectangle width="296" height="50" as="alternateBounds" />
          </mxGeometry>
        </mxCell>
        <mxCell id="grvuEKvJa0FzUhwnZ7c7-16" value="" style="shape=tableRow;horizontal=0;startSize=0;swimlaneHead=0;swimlaneBody=0;fillColor=none;collapsible=0;dropTarget=0;points=[[0,0.5],[1,0.5]];portConstraint=eastwest;top=0;left=0;right=0;bottom=0;" vertex="1" parent="grvuEKvJa0FzUhwnZ7c7-2">
          <mxGeometry y="170" width="326" height="50" as="geometry" />
        </mxCell>
        <mxCell id="grvuEKvJa0FzUhwnZ7c7-17" value="" style="shape=partialRectangle;connectable=0;fillColor=none;top=0;left=0;bottom=0;right=0;editable=1;overflow=hidden;whiteSpace=wrap;html=1;" vertex="1" parent="grvuEKvJa0FzUhwnZ7c7-16">
          <mxGeometry width="30" height="50" as="geometry">
            <mxRectangle width="30" height="50" as="alternateBounds" />
          </mxGeometry>
        </mxCell>
        <mxCell id="grvuEKvJa0FzUhwnZ7c7-18" value="Other_Sales (Sales in the rest of the world in millions)" style="shape=partialRectangle;connectable=0;fillColor=none;top=0;left=0;bottom=0;right=0;align=left;spacingLeft=6;overflow=hidden;whiteSpace=wrap;html=1;" vertex="1" parent="grvuEKvJa0FzUhwnZ7c7-16">
          <mxGeometry x="30" width="296" height="50" as="geometry">
            <mxRectangle width="296" height="50" as="alternateBounds" />
          </mxGeometry>
        </mxCell>
        <mxCell id="grvuEKvJa0FzUhwnZ7c7-19" value="" style="shape=tableRow;horizontal=0;startSize=0;swimlaneHead=0;swimlaneBody=0;fillColor=none;collapsible=0;dropTarget=0;points=[[0,0.5],[1,0.5]];portConstraint=eastwest;top=0;left=0;right=0;bottom=0;" vertex="1" parent="grvuEKvJa0FzUhwnZ7c7-2">
          <mxGeometry y="220" width="326" height="50" as="geometry" />
        </mxCell>
        <mxCell id="grvuEKvJa0FzUhwnZ7c7-20" value="" style="shape=partialRectangle;connectable=0;fillColor=none;top=0;left=0;bottom=0;right=0;editable=1;overflow=hidden;whiteSpace=wrap;html=1;" vertex="1" parent="grvuEKvJa0FzUhwnZ7c7-19">
          <mxGeometry width="30" height="50" as="geometry">
            <mxRectangle width="30" height="50" as="alternateBounds" />
          </mxGeometry>
        </mxCell>
        <mxCell id="grvuEKvJa0FzUhwnZ7c7-21" value="Global_Sales (Total worldwide sales in millions)" style="shape=partialRectangle;connectable=0;fillColor=none;top=0;left=0;bottom=0;right=0;align=left;spacingLeft=6;overflow=hidden;whiteSpace=wrap;html=1;" vertex="1" parent="grvuEKvJa0FzUhwnZ7c7-19">
          <mxGeometry x="30" width="296" height="50" as="geometry">
            <mxRectangle width="296" height="50" as="alternateBounds" />
          </mxGeometry>
        </mxCell>
        <mxCell id="grvuEKvJa0FzUhwnZ7c7-41" value="" style="edgeStyle=entityRelationEdgeStyle;fontSize=12;html=1;endArrow=ERoneToMany;rounded=0;" edge="1" parent="1" source="grvuEKvJa0FzUhwnZ7c7-22" target="grvuEKvJa0FzUhwnZ7c7-2">
          <mxGeometry width="100" height="100" relative="1" as="geometry">
            <mxPoint x="270" y="500" as="sourcePoint" />
            <mxPoint x="370" y="400" as="targetPoint" />
            <Array as="points">
              <mxPoint x="340" y="260" />
            </Array>
          </mxGeometry>
        </mxCell>
        <mxCell id="grvuEKvJa0FzUhwnZ7c7-22" value="dim_game&amp;nbsp;" style="shape=table;startSize=30;container=1;collapsible=1;childLayout=tableLayout;fixedRows=1;rowLines=0;fontStyle=1;align=center;resizeLast=1;html=1;" vertex="1" parent="1">
          <mxGeometry x="20" y="320" width="180" height="210" as="geometry" />
        </mxCell>
        <mxCell id="grvuEKvJa0FzUhwnZ7c7-23" value="" style="shape=tableRow;horizontal=0;startSize=0;swimlaneHead=0;swimlaneBody=0;fillColor=none;collapsible=0;dropTarget=0;points=[[0,0.5],[1,0.5]];portConstraint=eastwest;top=0;left=0;right=0;bottom=1;" vertex="1" parent="grvuEKvJa0FzUhwnZ7c7-22">
          <mxGeometry y="30" width="180" height="30" as="geometry" />
        </mxCell>
        <mxCell id="grvuEKvJa0FzUhwnZ7c7-24" value="PK" style="shape=partialRectangle;connectable=0;fillColor=none;top=0;left=0;bottom=0;right=0;fontStyle=1;overflow=hidden;whiteSpace=wrap;html=1;" vertex="1" parent="grvuEKvJa0FzUhwnZ7c7-23">
          <mxGeometry width="30" height="30" as="geometry">
            <mxRectangle width="30" height="30" as="alternateBounds" />
          </mxGeometry>
        </mxCell>
        <mxCell id="grvuEKvJa0FzUhwnZ7c7-25" value="Rank" style="shape=partialRectangle;connectable=0;fillColor=none;top=0;left=0;bottom=0;right=0;align=left;spacingLeft=6;fontStyle=5;overflow=hidden;whiteSpace=wrap;html=1;" vertex="1" parent="grvuEKvJa0FzUhwnZ7c7-23">
          <mxGeometry x="30" width="150" height="30" as="geometry">
            <mxRectangle width="150" height="30" as="alternateBounds" />
          </mxGeometry>
        </mxCell>
        <mxCell id="grvuEKvJa0FzUhwnZ7c7-26" value="" style="shape=tableRow;horizontal=0;startSize=0;swimlaneHead=0;swimlaneBody=0;fillColor=none;collapsible=0;dropTarget=0;points=[[0,0.5],[1,0.5]];portConstraint=eastwest;top=0;left=0;right=0;bottom=0;" vertex="1" parent="grvuEKvJa0FzUhwnZ7c7-22">
          <mxGeometry y="60" width="180" height="30" as="geometry" />
        </mxCell>
        <mxCell id="grvuEKvJa0FzUhwnZ7c7-27" value="" style="shape=partialRectangle;connectable=0;fillColor=none;top=0;left=0;bottom=0;right=0;editable=1;overflow=hidden;whiteSpace=wrap;html=1;" vertex="1" parent="grvuEKvJa0FzUhwnZ7c7-26">
          <mxGeometry width="30" height="30" as="geometry">
            <mxRectangle width="30" height="30" as="alternateBounds" />
          </mxGeometry>
        </mxCell>
        <mxCell id="grvuEKvJa0FzUhwnZ7c7-28" value="Game_Name" style="shape=partialRectangle;connectable=0;fillColor=none;top=0;left=0;bottom=0;right=0;align=left;spacingLeft=6;overflow=hidden;whiteSpace=wrap;html=1;" vertex="1" parent="grvuEKvJa0FzUhwnZ7c7-26">
          <mxGeometry x="30" width="150" height="30" as="geometry">
            <mxRectangle width="150" height="30" as="alternateBounds" />
          </mxGeometry>
        </mxCell>
        <mxCell id="grvuEKvJa0FzUhwnZ7c7-29" value="" style="shape=tableRow;horizontal=0;startSize=0;swimlaneHead=0;swimlaneBody=0;fillColor=none;collapsible=0;dropTarget=0;points=[[0,0.5],[1,0.5]];portConstraint=eastwest;top=0;left=0;right=0;bottom=0;" vertex="1" parent="grvuEKvJa0FzUhwnZ7c7-22">
          <mxGeometry y="90" width="180" height="30" as="geometry" />
        </mxCell>
        <mxCell id="grvuEKvJa0FzUhwnZ7c7-30" value="" style="shape=partialRectangle;connectable=0;fillColor=none;top=0;left=0;bottom=0;right=0;editable=1;overflow=hidden;whiteSpace=wrap;html=1;" vertex="1" parent="grvuEKvJa0FzUhwnZ7c7-29">
          <mxGeometry width="30" height="30" as="geometry">
            <mxRectangle width="30" height="30" as="alternateBounds" />
          </mxGeometry>
        </mxCell>
        <mxCell id="grvuEKvJa0FzUhwnZ7c7-31" value="Platform&amp;nbsp;" style="shape=partialRectangle;connectable=0;fillColor=none;top=0;left=0;bottom=0;right=0;align=left;spacingLeft=6;overflow=hidden;whiteSpace=wrap;html=1;" vertex="1" parent="grvuEKvJa0FzUhwnZ7c7-29">
          <mxGeometry x="30" width="150" height="30" as="geometry">
            <mxRectangle width="150" height="30" as="alternateBounds" />
          </mxGeometry>
        </mxCell>
        <mxCell id="grvuEKvJa0FzUhwnZ7c7-32" value="" style="shape=tableRow;horizontal=0;startSize=0;swimlaneHead=0;swimlaneBody=0;fillColor=none;collapsible=0;dropTarget=0;points=[[0,0.5],[1,0.5]];portConstraint=eastwest;top=0;left=0;right=0;bottom=0;" vertex="1" parent="grvuEKvJa0FzUhwnZ7c7-22">
          <mxGeometry y="120" width="180" height="30" as="geometry" />
        </mxCell>
        <mxCell id="grvuEKvJa0FzUhwnZ7c7-33" value="" style="shape=partialRectangle;connectable=0;fillColor=none;top=0;left=0;bottom=0;right=0;editable=1;overflow=hidden;whiteSpace=wrap;html=1;" vertex="1" parent="grvuEKvJa0FzUhwnZ7c7-32">
          <mxGeometry width="30" height="30" as="geometry">
            <mxRectangle width="30" height="30" as="alternateBounds" />
          </mxGeometry>
        </mxCell>
        <mxCell id="grvuEKvJa0FzUhwnZ7c7-34" value="Year" style="shape=partialRectangle;connectable=0;fillColor=none;top=0;left=0;bottom=0;right=0;align=left;spacingLeft=6;overflow=hidden;whiteSpace=wrap;html=1;" vertex="1" parent="grvuEKvJa0FzUhwnZ7c7-32">
          <mxGeometry x="30" width="150" height="30" as="geometry">
            <mxRectangle width="150" height="30" as="alternateBounds" />
          </mxGeometry>
        </mxCell>
        <mxCell id="grvuEKvJa0FzUhwnZ7c7-35" value="" style="shape=tableRow;horizontal=0;startSize=0;swimlaneHead=0;swimlaneBody=0;fillColor=none;collapsible=0;dropTarget=0;points=[[0,0.5],[1,0.5]];portConstraint=eastwest;top=0;left=0;right=0;bottom=0;" vertex="1" parent="grvuEKvJa0FzUhwnZ7c7-22">
          <mxGeometry y="150" width="180" height="30" as="geometry" />
        </mxCell>
        <mxCell id="grvuEKvJa0FzUhwnZ7c7-36" value="" style="shape=partialRectangle;connectable=0;fillColor=none;top=0;left=0;bottom=0;right=0;editable=1;overflow=hidden;whiteSpace=wrap;html=1;" vertex="1" parent="grvuEKvJa0FzUhwnZ7c7-35">
          <mxGeometry width="30" height="30" as="geometry">
            <mxRectangle width="30" height="30" as="alternateBounds" />
          </mxGeometry>
        </mxCell>
        <mxCell id="grvuEKvJa0FzUhwnZ7c7-37" value="Genre" style="shape=partialRectangle;connectable=0;fillColor=none;top=0;left=0;bottom=0;right=0;align=left;spacingLeft=6;overflow=hidden;whiteSpace=wrap;html=1;" vertex="1" parent="grvuEKvJa0FzUhwnZ7c7-35">
          <mxGeometry x="30" width="150" height="30" as="geometry">
            <mxRectangle width="150" height="30" as="alternateBounds" />
          </mxGeometry>
        </mxCell>
        <mxCell id="grvuEKvJa0FzUhwnZ7c7-38" value="" style="shape=tableRow;horizontal=0;startSize=0;swimlaneHead=0;swimlaneBody=0;fillColor=none;collapsible=0;dropTarget=0;points=[[0,0.5],[1,0.5]];portConstraint=eastwest;top=0;left=0;right=0;bottom=0;" vertex="1" parent="grvuEKvJa0FzUhwnZ7c7-22">
          <mxGeometry y="180" width="180" height="30" as="geometry" />
        </mxCell>
        <mxCell id="grvuEKvJa0FzUhwnZ7c7-39" value="" style="shape=partialRectangle;connectable=0;fillColor=none;top=0;left=0;bottom=0;right=0;editable=1;overflow=hidden;whiteSpace=wrap;html=1;" vertex="1" parent="grvuEKvJa0FzUhwnZ7c7-38">
          <mxGeometry width="30" height="30" as="geometry">
            <mxRectangle width="30" height="30" as="alternateBounds" />
          </mxGeometry>
        </mxCell>
        <mxCell id="grvuEKvJa0FzUhwnZ7c7-40" value="Publisher" style="shape=partialRectangle;connectable=0;fillColor=none;top=0;left=0;bottom=0;right=0;align=left;spacingLeft=6;overflow=hidden;whiteSpace=wrap;html=1;" vertex="1" parent="grvuEKvJa0FzUhwnZ7c7-38">
          <mxGeometry x="30" width="150" height="30" as="geometry">
            <mxRectangle width="150" height="30" as="alternateBounds" />
          </mxGeometry>
        </mxCell>
      </root>
    </mxGraphModel>
  </diagram>
</mxfile>
